<?xml version="1.0" encoding="UTF-8"?>
<svg xmlns="http://www.w3.org/2000/svg" xmlns:xlink="http://www.w3.org/1999/xlink" width="120px" height="94px" viewBox="0 0 119 94" version="1.1">
<g id="surface1">
<path style=" stroke:none;fill-rule:nonzero;fill:rgb(12.54902%,78.823531%,59.215689%);fill-opacity:1;" d="M 30.769531 5.078125 L 87.453125 5.078125 C 95.523438 5.078125 102.0625 11.664062 102.0625 19.789062 L 102.0625 74.351562 C 102.0625 82.472656 95.523438 89.058594 87.453125 89.058594 L 30.769531 89.058594 C 22.699219 89.058594 16.160156 82.472656 16.160156 74.351562 L 16.160156 19.789062 C 16.160156 11.664062 22.699219 5.078125 30.769531 5.078125 Z M 30.769531 5.078125 "/>
<path style=" stroke:none;fill-rule:evenodd;fill:rgb(100%,100%,100%);fill-opacity:1;" d="M 58.972656 20.148438 L 74.757812 29.121094 L 74.757812 22.566406 L 58.972656 13.589844 L 29.566406 30.308594 L 29.566406 63.75 L 58.972656 80.46875 C 68.4375 75.085938 77.90625 69.703125 87.371094 64.3125 L 88.371094 63.742188 L 88.371094 56.082031 L 82.601562 54.480469 L 82.601562 60.457031 L 58.964844 73.902344 L 35.328125 60.457031 L 35.328125 33.589844 L 58.964844 20.148438 Z M 58.972656 20.148438 "/>
<path style=" stroke:none;fill-rule:evenodd;fill:rgb(100%,100%,100%);fill-opacity:1;" d="M 74.757812 38.058594 L 74.757812 31.5 L 58.972656 22.523438 L 37.417969 34.773438 L 37.417969 59.28125 L 58.972656 71.542969 L 80.527344 59.28125 L 80.308594 56.480469 L 74.765625 53.328125 L 74.765625 56.007812 L 58.980469 64.984375 L 43.195312 56.007812 L 43.195312 38.050781 L 58.980469 29.074219 L 74.765625 38.050781 Z M 74.757812 38.058594 "/>
<path style=" stroke:none;fill-rule:evenodd;fill:rgb(100%,100%,100%);fill-opacity:1;" d="M 58.972656 35.4375 L 58.972656 41.984375 L 88.371094 58.710938 L 88.371094 52.152344 Z M 58.972656 35.4375 "/>
</g>
</svg>
