<?xml version="1.0" encoding="utf-8"?>
<!-- Generator: Adobe Illustrator 27.0.0, SVG Export Plug-In . SVG Version: 6.00 Build 0)  -->
<svg version="1.1" id="Layer_1" xmlns="http://www.w3.org/2000/svg" xmlns:xlink="http://www.w3.org/1999/xlink" x="0px" y="0px"
	 viewBox="0 0 1059 1028.3" style="enable-background:new 0 0 1059 1028.3;" xml:space="preserve">
<style type="text/css">
	.st0{display:none;fill-rule:evenodd;clip-rule:evenodd;}
	.st1{display:none;fill:url(#SVGID_1_);}
	.st2{fill:url(#SVGID_00000087382477454363540960000014011588015349374609_);}
	.st3{fill-rule:evenodd;clip-rule:evenodd;fill:#FFFFFF;}
	.st4{fill:#2563EB;}
	.st5{fill:#F97316;}
	.st6{fill:url(#SVGID_00000142867938866621790180000010379824878112598416_);}
	.st7{fill:url(#SVGID_00000031926103546158809900000000069947876721577372_);}
	.st8{fill:#FFFFFF;stroke:#FFFFFF;stroke-width:16;stroke-miterlimit:10;}
	.st9{fill:url(#SVGID_00000160177332247921762090000002843441021045107890_);}
	.st10{fill:url(#SVGID_00000062907322184901980420000004519941939140651155_);}
	.st11{fill:url(#SVGID_00000021114926540929928220000005258278158756801707_);}
	.st12{fill:url(#SVGID_00000110467172927884761150000014824235991430232750_);}
	.st13{fill:url(#SVGID_00000008839808194937980130000010861402652720555691_);}
	.st14{fill:url(#SVGID_00000088128255964580439290000015957483166209930657_);}
	.st15{fill:url(#SVGID_00000155839578770079653360000003617620763535722635_);}
	.st16{fill:#FFFFFF;}
</style>
<linearGradient id="SVGID_1_" gradientUnits="userSpaceOnUse" x1="0" y1="514.1652" x2="1059.031" y2="514.1652">
	<stop  offset="0" style="stop-color:#9DE359"/>
	<stop  offset="1" style="stop-color:#00D9A7"/>
</linearGradient>
<path style="fill:url(#SVGID_1_);" d="M878.9,1028.3H180.1C80.6,1028.3,0,947.7,0,848.2V180.1C0,80.6,80.6,0,180.1,0h698.8
	C978.4,0,1059,80.6,1059,180.1v668.1C1059,947.7,978.4,1028.3,878.9,1028.3z"/>
<g id="XMLID_27315_">
	<path id="XMLID_27331_" class="st16" d="M398.1,765.7c-16.8-7.3-30.2-14.8-38.5-19.9c-4.5-2.8-8-5.1-10.3-6.6c-1.1-0.8-2-1.4-2.8-2
		l-0.5-0.3c-7.3-5.5-17.5-4.2-23.2,3c-5.6,7.1-4.5,17.5,2.4,23.3c62.6,52,119.7,81.2,174.7,89.5c11.3,1.7,22.4,2.5,33.6,2.5
		c15.9,0,31.8-1.7,48-5.1c21.6-4.5,43.6-12,67-22.9l13.2,19.1c3.5,5.1,9.5,7.8,15.7,7.1c6.2-0.7,11.4-4.7,13.7-10.5l36.3-92.3
		c1.9-4.8,1.4-10.4-1.2-14.7c-2.7-4.4-7.3-7.5-12.5-8l-99.1-11.2c-6.4-0.7-12.5,2.2-15.9,7.6c-3.4,5.3-3.6,12.2-0.3,17.7l10.3,17.3
		c-26.8,16.1-55.6,25.8-85.8,28.7C473,792.6,427.5,778.4,398.1,765.7z M629.8,771.7c4.9-3.3,6.4-9.8,3.4-14.9l-10.3-17.3l81.5,9.2
		l-30.1,76.6l-12.9-18.6c-3.1-4.5-9.1-6.1-14-3.6c-25,12.3-48,20.6-70.4,25.2c-25.1,5.3-49.3,6-73.8,2.3
		c-32.7-4.9-66.6-18.1-102.4-40c31.6,12.3,75.9,23.8,124.3,19C562.2,805.9,597.5,793.2,629.8,771.7z"/>
	<path id="XMLID_27328_" class="st16" d="M687.2,281.1c4.5,2.7,8,5.1,10.3,6.7c1.1,0.8,2,1.4,2.7,1.9l0.6,0.4
		c7.3,5.5,17.5,4.2,23.2-3c5.7-7.2,4.6-17.4-2.4-23.3c-62.6-52-119.7-81.2-174.7-89.5c-27.2-4.1-53.9-3.2-81.6,2.6
		c-21.6,4.5-43.6,12-67,22.9L385,180.7c-3.5-5.1-9.6-7.8-15.7-7.1c-6.2,0.7-11.4,4.7-13.7,10.5l-36.4,92.4
		c-1.9,4.8-1.4,10.4,1.2,14.7c2.7,4.4,7.3,7.5,12.5,8l99.1,11.2c0.6,0.1,1.3,0.1,1.9,0.1c5.7,0,10.9-2.8,14-7.7
		c3.4-5.3,3.5-12.2,0.3-17.7l-10.3-17.3c26.8-16.1,55.6-25.8,85.8-28.7c49.8-4.9,95.3,9.2,124.8,22
		C665.5,268.4,678.9,276,687.2,281.1z M521.8,217.2c-37.2,3.7-72.5,16.4-104.8,38c-4.9,3.3-6.4,9.8-3.4,14.9l10.3,17.3l-81.5-9.2
		l30.1-76.6l12.9,18.6c3.1,4.5,9.1,6,14,3.6c25-12.3,48-20.5,70.4-25.2c25.1-5.3,49.3-6,73.8-2.3c32.7,4.9,66.6,18.1,102.4,40
		C614.4,224,570.1,212.5,521.8,217.2z"/>
	<path id="XMLID_27325_" class="st16" d="M324.6,541.4L324.6,541.4c24.5,0,47.6-9.6,64.9-26.9c17.4-17.4,26.9-40.4,26.9-64.9
		c0-50.6-41.2-91.8-91.8-91.8c-24.5,0-47.6,9.6-64.9,26.9c-17.4,17.4-26.9,40.4-26.9,64.9C232.8,500.3,274,541.4,324.6,541.4z
		 M276.9,401.9c12.8-12.8,29.7-19.8,47.7-19.8c37.2,0,67.5,30.3,67.5,67.5c0,18-7,35-19.8,47.7c-12.8,12.8-29.7,19.8-47.7,19.8h0
		c-37.2,0-67.5-30.3-67.5-67.5C257.1,431.7,264.1,414.7,276.9,401.9z"/>
	<path id="XMLID_27322_" class="st16" d="M440.9,670.2c0.1-3.3,2.1-80.8-46.7-125.5c-4.3-4-10.9-4.3-15.6-0.7
		c-0.5,0.4-54.5,40.9-104.6,0.1c-4.6-3.7-11.2-3.6-15.7,0.3c-2,1.7-48.9,43.5-50.1,125.3c-0.1,3.3,1.2,6.4,3.5,8.7
		c2.3,2.3,5.4,3.6,8.7,3.6l0,0l208.3,0C435.3,682,440.7,676.8,440.9,670.2z M233.2,657.7c3.7-46.3,23.9-75.6,34.6-88
		c43.8,29.1,90.9,15.3,116.7-0.3c24.7,28,30.5,68.5,31.8,88.3L233.2,657.7z"/>
	<path id="XMLID_27319_" class="st16" d="M666,384.8c-17.4,17.4-26.9,40.4-26.9,64.9c0,50.6,41.2,91.8,91.8,91.8h0
		c24.5,0,47.5-9.6,64.9-26.9c17.4-17.4,26.9-40.4,26.9-64.9c0-50.6-41.2-91.8-91.8-91.8C706.4,357.8,683.4,367.4,666,384.8z
		 M798.5,449.6c0,18-7,35-19.8,47.7c-12.8,12.8-29.7,19.8-47.7,19.8h0c-37.2,0-67.5-30.3-67.5-67.5c0-18,7-35,19.8-47.7
		c12.8-12.8,29.7-19.8,47.7-19.8C768.2,382.1,798.5,412.4,798.5,449.6z"/>
	<path id="XMLID_27316_" class="st16" d="M800.6,544.8c-4.3-4-10.9-4.3-15.6-0.7c-0.5,0.4-54.5,40.9-104.6,0.1
		c-4.6-3.7-11.2-3.6-15.7,0.3c-2,1.7-48.9,43.5-50.1,125.3c0,3.3,1.2,6.4,3.5,8.7c2.3,2.3,5.4,3.6,8.6,3.6h0l208.3,0
		c6.5,0,11.9-5.2,12.1-11.8C847.4,667,849.3,589.4,800.6,544.8z M639.5,657.7c3.7-46.3,23.9-75.6,34.6-88
		c43.8,29.1,90.9,15.3,116.7-0.3c24.7,28,30.5,68.5,31.8,88.3L639.5,657.7z"/>
</g>
</svg>
